<svg xmlns="http://www.w3.org/2000/svg" xmlns:xlink="http://www.w3.org/1999/xlink" version="1.1" x="0px" y="0px" viewBox="0 0 110 137.5" enable-background="new 0 0 110 110" xml:space="preserve"><g><path d="M104.707,25.48c-0.825-0.826-3.15-1.686-5.615-1.686c-2.604,0-4.949,0.909-6.799,2.667L64.682,54.055   c-0.519-0.132-1.291-0.277-2.215-0.277c-0.975,0-1.918,0.159-2.802,0.474c-0.46,0.164-1.383,0.358-3.168,0.358   c-0.001,0-0.001,0-0.001,0c-2.559,0-5.323-0.401-5.351-0.405l-0.498-0.073l-2.17,2.171l9.337,7.002   C59.23,64.639,60.938,66,61.948,66h0.067c1.575,0,10.851-5.462,14.562-8.087c3.952-2.797,16.188-15.024,21.412-20.287l1.718-1.728   c1.607-1.608,3.148-3.706,4.227-5.753C105.811,26.585,105.009,25.782,104.707,25.48z M56.496,56.609   c1.688,0,2.941-0.155,3.839-0.475c0.815-0.289,1.774-0.396,2.604-0.34l-5.062,5.057l-6.061-4.545   C52.895,56.434,54.718,56.609,56.496,56.609z M98.293,34.486l-1.723,1.732c-5.188,5.226-17.338,17.463-21.147,20.159   c-4.491,3.178-12.034,7.42-13.391,7.801c-0.431-0.17-1.511-1.009-2.599-2.004l7.351-7.35l0,0l26.905-26.906   c1.509-1.435,3.201-1.931,4.564-2.064L96.2,28.593c-0.332,0.442-0.242,1.069,0.2,1.4c0.18,0.135,0.39,0.2,0.599,0.2   c0.306,0,0.604-0.138,0.801-0.4l2.884-3.845c1.164,0.201,2.057,0.574,2.444,0.825C103.014,27.839,101.214,31.564,98.293,34.486z"/><path d="M88.445,35.825c-0.957,0-1.993,0.367-2.52,0.892c-0.349,0.349-2.629,3.356-4.568,6.126   c-4.269,6.089-4.069,6.814-3.393,7.491c0.219,0.218,0.516,0.338,0.837,0.338c0.562,0,1.731,0,11.253-9.597l0.114-0.116   c0.81-0.81,1.429-3.18,0.183-4.426C89.891,36.069,89.23,35.825,88.445,35.825z M88.756,39.545l-0.12,0.121   c-3.379,3.406-5.931,5.806-7.627,7.272c2.05-3.196,5.692-8.114,6.327-8.803c0.12-0.105,0.62-0.311,1.109-0.311   c0.272,0,0.435,0.063,0.492,0.122C89.204,38.212,89.001,39.266,88.756,39.545z"/><path d="M94.467,47.731l-4.568,0.468c-0.549,0.056-0.948,0.547-0.894,1.097c0.056,0.549,0.55,0.951,1.097,0.893l2.308-0.236   c-5.132,7.752-13.173,14.773-23.359,20.365C53.699,78.746,28.951,84.193,6,84.193c-0.552,0-1,0.447-1,1s0.448,1,1,1   c23.263,0,48.389-5.545,64.012-14.123c10.393-5.704,18.635-12.885,23.949-20.836l0.419,2.587c0.08,0.491,0.504,0.84,0.986,0.84   c0.053,0,0.106-0.004,0.161-0.013c0.545-0.088,0.914-0.602,0.826-1.147l-0.799-4.936C95.471,48.042,94.984,47.671,94.467,47.731z"/></g></svg>